<?xml version="1.0" encoding="utf-8"?>
<!-- Generator: Adobe Illustrator 25.4.1, SVG Export Plug-In . SVG Version: 6.00 Build 0)  -->
<svg version="1.1" id="Layer_1" xmlns="http://www.w3.org/2000/svg" xmlns:xlink="http://www.w3.org/1999/xlink" x="0px" y="0px"
	 viewBox="0 0 48 48" style="enable-background:new 0 0 48 48;" xml:space="preserve">
<style type="text/css">
	.st0{fill:#00A9CE;}
	.st1{fill:#FFFFFF;}
</style>
<g>
	<path class="st0" d="M46.4,22.7h-5.9c-0.3-3.9-2-7.6-4.8-10.4c-2.1-2.1-4.7-3.6-7.5-4.3l3.3-5.8c0.4-0.6,0.2-1.5-0.5-1.8
		c-0.6-0.4-1.5-0.1-1.8,0.5l-3.8,6.6c-0.5,0-1-0.1-1.5-0.1c-4.4,0-8.6,1.7-11.7,4.9c-2.8,2.8-4.5,6.5-4.8,10.4H1.6
		c-0.7,0-1.3,0.6-1.3,1.3c0,0.7,0.6,1.3,1.3,1.3h5.9c0.3,3.9,2,7.6,4.8,10.4c2.1,2.1,4.6,3.6,7.4,4.3l-3.3,5.8
		c-0.4,0.6-0.2,1.5,0.5,1.8c0.2,0.1,0.4,0.2,0.7,0.2c0.5,0,0.9-0.2,1.2-0.7l3.8-6.6c0.5,0,1,0.1,1.5,0.1c4.4,0,8.6-1.7,11.7-4.9
		c2.8-2.8,4.5-6.5,4.8-10.4h5.9c0.7,0,1.3-0.6,1.3-1.3C47.8,23.3,47.2,22.7,46.4,22.7z M10.1,24.1c0-7.7,6.2-13.9,13.9-13.9
		l-7.6,13.2c-0.2,0.4-0.2,0.9,0,1.3c0.2,0.4,0.7,0.7,1.2,0.7h10.7l-7.1,12.3C14.8,36.3,10.1,30.7,10.1,24.1z M24,38
		C24,38,24,38,24,38l7.5-13c0.3-0.2,0.4-0.6,0.4-1c0-0.7-0.5-1.3-1.2-1.3c-0.1,0-0.2,0-0.3,0H19.8l7.1-12.3c6.3,1.3,11,6.9,11,13.6
		C37.9,31.7,31.7,38,24,38z"/>
</g>
</svg>
